<svg height="50" width="41" xmlns="http://www.w3.org/2000/svg"><g fill="#fff"><path d="m29.945 4.728a12.33 12.33 0 0 1 -2.17 3.968v.002a10.7 10.7 0 0 1 -3.57 2.817c-1.273.613-2.67.944-4.06.834l-.425-.033-.056-.428c-.18-1.378.028-2.774.467-4.066a12.218 12.218 0 0 1 2.227-3.913c.919-1.087 2.151-2.033 3.471-2.718 1.325-.688 2.747-1.118 4.042-1.171l.489-.02.053.494c.157 1.443-.034 2.885-.47 4.234z"/><path d="m38.943 17.695c-.47.293-5.004 3.125-4.948 8.835.06 6.883 5.841 9.269 6.16 9.4h.002l.014.006.454.19-.156.469c-.009.027.002-.002-.012.042-.147.477-1.147 3.71-3.407 7.043-1.025 1.512-2.07 3.021-3.302 4.185-1.277 1.206-2.735 2.02-4.537 2.053-1.697.032-2.809-.453-3.965-.958-1.101-.481-2.247-.982-4.04-.982-1.884 0-3.088.518-4.248 1.017-1.092.47-2.147.923-3.668.985h-.003c-1.756.066-3.28-.799-4.633-2.079-1.295-1.225-2.43-2.829-3.463-4.338-2.334-3.403-4.364-8.353-4.991-13.385-.516-4.14-.085-8.346 1.898-11.82a12.912 12.912 0 0 1 4.463-4.635 11.837 11.837 0 0 1 6.004-1.761c1.878-.035 3.648.674 5.196 1.295 1.097.439 2.073.83 2.805.83.647 0 1.6-.38 2.712-.822 1.877-.747 4.174-1.66 6.602-1.417 1.02.045 3.144.292 5.315 1.48a11.214 11.214 0 0 1 3.94 3.596l.304.45-.455.296z"/></g></svg>