<?xml version="1.0" encoding="UTF-8"?>
<svg width="60px" height="60px" viewBox="0 0 60 60" version="1.1" xmlns="http://www.w3.org/2000/svg" xmlns:xlink="http://www.w3.org/1999/xlink">
    <!-- Generator: Sketch 59.1 (86144) - https://sketch.com -->
    <title>Artboard Copy 5</title>
    <desc>Created with Sketch.</desc>
    <g id="Artboard-Copy-5" stroke="none" stroke-width="1" fill="none" fill-rule="evenodd">
        <path d="M18.7102398,22.1732863 C19.2122924,22.1949381 20.258004,22.3141843 21.3269532,22.8886301 C22.0079167,23.2545859 22.6986195,23.8040032 23.2664039,24.628003 L23.4161109,24.8452989 L23.1924781,24.9884931 C23.1805176,24.9961595 23.1921527,24.9883413 23.1720782,25.0006379 C22.9410835,25.1423582 20.7085611,26.5121912 20.7362349,29.2733149 C20.7654376,32.6019997 23.6117503,33.7559101 23.7688656,33.8195816 L23.7698798,33.8195816 L23.7766734,33.8223711 L24,33.9140639 L23.9235103,34.1406767 C23.9189749,34.1541119 23.9241227,34.1398228 23.9175014,34.1609054 C23.8448772,34.3916361 23.3525459,35.9556594 22.2403685,37.5672234 C21.7356927,38.298224 21.2215076,39.0281225 20.6144193,39.5911336 C19.9858335,40.1740623 19.2679559,40.5675529 18.3811208,40.5838909 C17.5452456,40.5994513 16.9980107,40.364659 16.4291456,40.1205883 C15.8867132,39.8878461 15.3226002,39.6457853 14.4398238,39.6457853 C13.5124938,39.6457853 12.9197122,39.8961942 12.3487343,40.1374195 C11.8112582,40.3644694 11.291446,40.5840612 10.5425813,40.6136829 C9.67685309,40.6455249 8.9270162,40.2275364 8.26061713,39.6084388 C7.62305681,39.0161546 7.06447214,38.2405422 6.55545404,37.5104943 C5.40642418,35.8653031 4.40713746,33.4715105 4.09839959,31.0374393 C3.84445519,29.0352992 4.05671973,27.0014439 5.03288619,25.3217419 C5.57782515,24.3819285 6.33944932,23.6149519 7.22990736,23.0797775 C8.02766383,22.6003315 8.92888985,22.3068247 9.87070642,22.2414771 L10.1860624,22.2281839 C11.1102539,22.2115607 11.9816676,22.5544795 12.7441716,22.8545306 C13.2838091,23.0668732 13.7646025,23.2560849 14.1250424,23.2560849 C14.4434791,23.2560849 14.912866,23.0725672 15.4600425,22.8586485 C16.3841773,22.4973616 17.5147574,22.0554066 18.7102398,22.1732863 Z M19.3311356,16 L19.3577096,16.2455344 C19.4353904,16.9636333 19.3409179,17.6809504 19.1252638,18.3519121 C18.8900606,19.0836449 18.5095122,19.7618408 18.0508406,20.3259077 L18.0508406,20.3269423 C17.5880473,20.8942404 16.969875,21.3958127 16.2821651,21.7283723 C15.6509938,22.0335818 14.9591248,22.1979485 14.2706437,22.1435441 L14.0599391,22.1268927 L14.0321905,21.9142122 C13.9427439,21.2283242 14.0460359,20.5339823 14.2635765,19.8914318 C14.4850799,19.2371668 14.8267113,18.6330308 15.2034186,18.1458839 L15.3666872,17.9443861 C15.8220083,17.4036943 16.432614,16.9332587 17.0865325,16.5924022 C17.7426602,16.2503755 18.4473343,16.0365033 19.0886955,16.0100143 L19.3311356,16 Z" id="Combined-Shape-Copy-2" fill="#C458E0" fill-rule="nonzero"></path>
        <path d="M31,22.5815217 L40.75,21.25 L40.75,30.625 L31,30.625 M41.875,20.9189593 L55,19 L55,30.625 L41.875,30.625 M31,31.75 L40.75,31.75 L40.75,41.125 L31,39.7702312 M41.875,31.75 L55,31.75 L55,43 L41.875,41.1793478" id="Shape-Copy" fill="#C458E0" fill-rule="nonzero"></path>
    </g>
</svg>