<svg height="717" viewBox="0 0 676 717" width="676" xmlns="http://www.w3.org/2000/svg"><g fill="#fff" transform="matrix(.8660254 -.5 .5 .8660254 -11.848329 269.987896)"><path d="m480.657937 458.861025 39.134956-7.812457v-98.705217l-39.134956-7.812457c-4.186435-14.396217-9.932522-28.249761-17.145913-41.345608l22.132695-33.123587-69.948348-69.789913-33.193913 22.085804c-13.10313-7.198109-26.996347-12.932022-41.42313-17.109587l-7.829043-39.052044h-98.914783l-7.818783 39.052044c-14.313913 4.146848-28.084 9.809087-41.084521 16.915043l-33.604348-21.819587-69.8149568 69.656805 21.8659128 33.55363c-7.059478 12.860348-12.6926954 26.468152-16.8380867 40.598152l-39.2478261 8.283457v98.510674l39.2478261 8.293696c4.1351304 14.13 9.7786087 27.737804 16.8380867 40.598152l-21.8659128 33.55363 69.8149568 69.656804 33.604348-21.819586c12.887652 7.034282 26.524347 12.665804 40.684347 16.802413l8.311305 39.164673h98.719826l8.321565-39.164673c14.28313-4.167327 28.032696-9.870522 41.022957-16.996957l33.193913 22.085804 69.948347-69.789913-22.132695-33.123587c7.223652-13.095847 12.959478-26.95963 17.156174-41.345608zm-21.424696 71.858217-46.14313 46.055609-29.84887-19.853674-5.55113 3.286761c-14.796174 8.744217-30.79287 15.379174-47.538609 19.710326l-6.146261 1.587065-7.490435 35.21237h-65.454087l-7.480174-35.222609-6.14626-1.587065c-16.602087-4.290196-32.465392-10.843239-47.158957-19.474826l-5.479304-3.215087-30.228522 19.618174-46.286783-46.188718 19.659826-30.174717-3.221913-5.467696c-8.649913-14.652196-15.206608-30.481891-19.505913-47.048804l-1.580174-6.143478-35.3179127-7.464327v-65.315413l35.3076527-7.464326 1.580173-6.143478c4.299305-16.566913 10.866261-32.396609 19.505913-47.048804l3.221914-5.467696-19.659827-30.174717 46.286783-46.188718 30.228522 19.618174 5.479304-3.215087c14.806435-8.7135 30.823652-15.297261 47.600174-19.587456l6.24887-1.597305 7.049217-35.0895h65.24887l7.038956 35.099739 6.24887 1.597305c16.899652 4.320913 33.050261 10.986587 47.979826 19.822956l5.55113 3.286761 29.84887-19.853674 46.14313 46.055609-19.885565 29.78563 3.283478 5.53937c8.84487 14.908174 15.534957 31.014326 19.865044 47.878174l1.600695 6.23563 35.184522 7.013805v65.120869l-35.184522 7.024044-1.600695 6.23563c-4.330087 16.863848-11.009913 32.97-19.865044 47.878174l-3.283478 5.53937z"/><path d="m271.87868 206.14109h21v22h-21z"/><path d="m144.2274 260.237926 20.526408.0162.016199 20.526407-20.526407-.016199z" transform="matrix(.70710678 -.70710678 .70710678 .70710678 -146.027288 188.4774)"/><path d="m89.44513 388.574639h21v22h-21z"/><path d="m144.224705 521.292684 20.526407.0162.0162 20.526407-20.526407-.0162z" transform="matrix(.70710678 -.70710678 .70710678 .70710678 -330.621666 264.936663)"/><path d="m274 577.37215h21v22h-21z"/><path d="m405.681502 521.294422 20.526407.0162.0162 20.526407-20.526407-.0162z" transform="matrix(.70710678 -.70710678 .70710678 .70710678 -254.043973 449.815046)"/><path d="m461.383297 389.988853h21v22h-21z"/><path d="m405.684197 260.239665 20.526408.0162.0162 20.526407-20.526408-.0162z" transform="matrix(.70710678 -.70710678 .70710678 .70710678 -69.449594 373.355784)"/><path d="m282.025126 266.221086c-73.885538 0-134 59.665846-134 133s60.114462 133 134 133c73.885539 0 134-59.665846 134-133s-60.114461-133-134-133zm0 245.538461c-62.516154 0-113.384615-50.488846-113.384615-112.538461 0-62.049616 50.868461-112.538462 113.384615-112.538462s113.384616 50.488846 113.384616 112.538462c0 62.049615-50.868462 112.538461-113.384616 112.538461z"/><path d="m283.43934 329.842406c-39.416929 0-71.5 32.072857-71.5 71.5s32.083071 71.5 71.5 71.5c39.416928 0 71.5-32.072857 71.5-71.5s-32.083072-71.5-71.5-71.5zm0 122.571429c-28.160786 0-51.071429-22.910643-51.071429-51.071429s22.910643-51.071428 51.071429-51.071428 51.071428 22.910642 51.071428 51.071428-22.910642 51.071429-51.071428 51.071429z"/><path d="m62.102271 188.458063c30.8463063 0 59.779504-15.865111 76.884341-41.777778h298.80495c17.104838 25.912667 46.038035 41.777778 76.884342 41.777778 21.229335 0 41.255263-7.196222 57.886966-20.805333l3.826217-3.133334v-38.728h-45.071195l-15.428296-31.3333329 15.428296-31.3333334h45.06091v-38.728l-3.826218-3.1333333c-16.631703-13.60911111-36.657631-20.80533333-57.886966-20.80533333-30.846306 0-59.779504 15.86511113-76.884341 41.77777773h-298.794665c-17.104837-25.9126666-46.0380347-41.77777773-76.884341-41.77777773-21.2293352 0-41.2552633 7.19622222-57.88696631 20.80533333l-3.82621739 3.1333333v38.728h45.0711952l15.4282959 31.3333334-15.4282959 31.3333329h-45.0711952v38.728l3.82621739 3.133334c16.63170301 13.609111 36.65763111 20.805333 57.88696631 20.805333zm-41.1421225-41.777778h37.2130498l25.7138265-52.2222219-25.7138265-52.2222223h-37.2130498v-7.6453333c12.1266406-8.6793333 26.2486742-13.2435555 41.1421225-13.2435555 25.549258 0 49.421975 14.0164444 62.289173 36.566l2.972519 5.2117777h322.050249l2.972518-5.2117777c12.856913-22.5495556 36.72963-36.566 62.278888-36.566 14.893448 0 29.015482 4.5642222 41.142123 13.2435555v7.6453333h-37.21305l-25.713827 52.2222223 25.713827 52.2222219h37.21305v7.645334c-12.126641 8.679333-26.248675 13.243555-41.142123 13.243555-25.549258 0-49.421975-14.016444-62.289173-36.566l-2.972519-5.211778h-322.039963l-2.972519 5.211778c-12.867198 22.549556-36.739915 36.566-62.289173 36.566-14.8934483 0-29.0154819-4.564222-41.1421225-13.243555z"/></g></svg>