<?xml version="1.0" encoding="UTF-8"?>
<svg width="676px" height="717px" viewBox="0 0 676 717" version="1.1" xmlns="http://www.w3.org/2000/svg" xmlns:xlink="http://www.w3.org/1999/xlink">
    <!-- Generator: Sketch 59.1 (86144) - https://sketch.com -->
    <title>Group 3 Copy</title>
    <desc>Created with Sketch.</desc>
    <g id="Page-1" stroke="none" stroke-width="1" fill="none" fill-rule="evenodd">
        <g id="Group-3-Copy" transform="translate(397.500000, 402.000000) rotate(-30.000000) translate(-397.500000, -402.000000) translate(109.000000, 83.000000)" fill="#FFFFFF" fill-rule="nonzero">
            <path d="M480.657937,458.861025 L519.792893,451.048568 L519.792893,352.343351 L480.657937,344.530894 C476.471502,330.134677 470.725415,316.281133 463.512024,303.185286 L485.644719,270.061699 L415.696371,200.271786 L382.502458,222.35759 C369.399328,215.159481 355.506111,209.425568 341.079328,205.248003 L333.250285,166.195959 L234.335502,166.195959 L226.516719,205.248003 C212.202806,209.394851 198.432719,215.05709 185.432198,222.163046 L151.82785,200.343459 L82.0128932,270.000264 L103.878806,303.553894 C96.819328,316.414242 91.1861106,330.022046 87.0407193,344.152046 L47.7928932,352.435503 L47.7928932,450.946177 L87.0407193,459.239873 C91.1758497,473.369873 96.819328,486.977677 103.878806,499.838025 L82.0128932,533.391655 L151.82785,603.048459 L185.432198,581.228873 C198.31985,588.263155 211.956545,593.894677 226.116545,598.031286 L234.42785,637.195959 L333.147676,637.195959 L341.469241,598.031286 C355.752371,593.863959 369.501937,588.160764 382.492198,581.034329 L415.686111,603.120133 L485.634458,533.33022 L463.501763,500.206633 C470.725415,487.110786 476.461241,473.247003 480.657937,458.861025 Z M459.233241,530.719242 L413.090111,576.774851 L383.241241,556.921177 L377.690111,560.207938 C362.893937,568.952155 346.897241,575.587112 330.151502,579.918264 L324.005241,581.505329 L316.514806,616.717699 L251.060719,616.717699 L243.580545,581.49509 L237.434285,579.908025 C220.832198,575.617829 204.968893,569.064786 190.275328,560.433199 L184.796024,557.218112 L154.567502,576.836286 L108.280719,530.647568 L127.940545,500.472851 L124.718632,495.005155 C116.068719,480.352959 109.512024,464.523264 105.212719,447.956351 L103.632545,441.812873 L68.3146323,434.348546 L68.3146323,369.033133 L103.622285,361.568807 L105.202458,355.425329 C109.501763,338.858416 116.068719,323.02872 124.708371,308.376525 L127.930285,302.908829 L108.270458,272.734112 L154.557241,226.545394 L184.785763,246.163568 L190.265067,242.948481 C205.071502,234.234981 221.088719,227.65122 237.865241,223.361025 L244.114111,221.76372 L251.163328,186.67422 L316.412198,186.67422 L323.451154,221.773959 L329.700024,223.371264 C346.599676,227.692177 362.750285,234.357851 377.67985,243.19422 L383.23098,246.480981 L413.07985,226.627307 L459.22298,272.682916 L439.337415,302.468546 L442.620893,308.007916 C451.465763,322.91609 458.15585,339.022242 462.485937,355.88609 L464.086632,362.12172 L499.271154,369.135525 L499.271154,434.256394 L464.086632,441.280438 L462.485937,447.516068 C458.15585,464.379916 451.476024,480.486068 442.620893,495.394242 L439.337415,500.933612 L459.233241,530.719242 Z" id="Shape"></path>
            <rect id="Rectangle" x="271.87868" y="206.14109" width="21" height="22"></rect>
            <polygon id="Rectangle" transform="translate(154.498704, 270.509230) rotate(-45.000000) translate(-154.498704, -270.509230) " points="144.2274 260.237926 164.753808 260.254126 164.770007 280.780533 144.2436 280.764334"></polygon>
            <rect id="Rectangle" x="89.4451301" y="388.574639" width="21" height="22"></rect>
            <polygon id="Rectangle" transform="translate(154.496009, 531.563987) rotate(-45.000000) translate(-154.496009, -531.563987) " points="144.224705 521.292684 164.751112 521.308884 164.767312 541.835291 144.240905 541.819091"></polygon>
            <rect id="Rectangle" x="274" y="577.37215" width="21" height="22"></rect>
            <polygon id="Rectangle" transform="translate(415.952806, 531.565726) rotate(-45.000000) translate(-415.952806, -531.565726) " points="405.681502 521.294422 426.207909 521.310622 426.224109 541.837029 405.697702 541.820829"></polygon>
            <rect id="Rectangle" x="461.383297" y="389.988853" width="21" height="22"></rect>
            <polygon id="Rectangle" transform="translate(415.955501, 270.510968) rotate(-45.000000) translate(-415.955501, -270.510968) " points="405.684197 260.239665 426.210605 260.255865 426.226805 280.782272 405.700397 280.766072"></polygon>
            <path d="M282.025126,266.221086 C208.139588,266.221086 148.025126,325.886932 148.025126,399.221086 C148.025126,472.55524 208.139588,532.221086 282.025126,532.221086 C355.910665,532.221086 416.025126,472.55524 416.025126,399.221086 C416.025126,325.886932 355.910665,266.221086 282.025126,266.221086 Z M282.025126,511.759547 C219.508972,511.759547 168.640511,461.270701 168.640511,399.221086 C168.640511,337.17147 219.508972,286.682624 282.025126,286.682624 C344.54128,286.682624 395.409742,337.17147 395.409742,399.221086 C395.409742,461.270701 344.54128,511.759547 282.025126,511.759547 Z" id="Shape"></path>
            <path d="M283.43934,329.842406 C244.022411,329.842406 211.93934,361.915263 211.93934,401.342406 C211.93934,440.769549 244.022411,472.842406 283.43934,472.842406 C322.856268,472.842406 354.93934,440.769549 354.93934,401.342406 C354.93934,361.915263 322.856268,329.842406 283.43934,329.842406 Z M283.43934,452.413835 C255.278554,452.413835 232.367911,429.503192 232.367911,401.342406 C232.367911,373.18162 255.278554,350.270978 283.43934,350.270978 C311.600126,350.270978 334.510768,373.18162 334.510768,401.342406 C334.510768,429.503192 311.600126,452.413835 283.43934,452.413835 Z" id="Shape"></path>
            <path d="M62.102271,188.458063 C92.9485773,188.458063 121.881775,172.592952 138.986612,146.680285 L437.791562,146.680285 C454.8964,172.592952 483.829597,188.458063 514.675904,188.458063 C535.905239,188.458063 555.931167,181.261841 572.56287,167.65273 L576.389087,164.519396 L576.389087,125.791396 L531.317892,125.791396 L515.889596,94.4580631 L531.317892,63.1247297 L576.378802,63.1247297 L576.378802,24.3967297 L572.552584,21.2633964 C555.920881,7.65428529 535.894953,0.458063067 514.665618,0.458063067 C483.819312,0.458063067 454.886114,16.3231742 437.781277,42.2358408 L138.986612,42.2358408 C121.881775,16.3231742 92.9485773,0.458063067 62.102271,0.458063067 C40.8729358,0.458063067 20.8470077,7.65428529 4.21530469,21.2633964 L0.389087297,24.3967297 L0.389087297,63.1247297 L45.4602825,63.1247297 L60.8885784,94.4580631 L45.4602825,125.791396 L0.389087297,125.791396 L0.389087297,164.519396 L4.21530469,167.65273 C20.8470077,181.261841 40.8729358,188.458063 62.102271,188.458063 Z M20.9601485,146.680285 L58.1731983,146.680285 L83.8870248,94.4580631 L58.1731983,42.2358408 L20.9601485,42.2358408 L20.9601485,34.5905075 C33.0867891,25.9111742 47.2088227,21.346952 62.102271,21.346952 C87.651529,21.346952 111.524246,35.3633964 124.391444,57.912952 L127.363963,63.1247297 L449.414212,63.1247297 L452.38673,57.912952 C465.243643,35.3633964 489.11636,21.346952 514.665618,21.346952 C529.559066,21.346952 543.6811,25.9111742 555.807741,34.5905075 L555.807741,42.2358408 L518.594691,42.2358408 L492.880864,94.4580631 L518.594691,146.680285 L555.807741,146.680285 L555.807741,154.325619 C543.6811,163.004952 529.559066,167.569174 514.665618,167.569174 C489.11636,167.569174 465.243643,153.55273 452.376445,131.003174 L449.403926,125.791396 L127.363963,125.791396 L124.391444,131.003174 C111.524246,153.55273 87.651529,167.569174 62.102271,167.569174 C47.2088227,167.569174 33.0867891,163.004952 20.9601485,154.325619 L20.9601485,146.680285 Z" id="Shape"></path>
        </g>
    </g>
</svg>