<?xml version="1.0" encoding="UTF-8"?>
<svg width="60px" height="59px" viewBox="0 0 60 59" version="1.1" xmlns="http://www.w3.org/2000/svg" xmlns:xlink="http://www.w3.org/1999/xlink">
    <!-- Generator: Sketch 59.1 (86144) - https://sketch.com -->
    <title>Fill 4</title>
    <desc>Created with Sketch.</desc>
    <g id="Page-1" stroke="none" stroke-width="1" fill="none" fill-rule="evenodd">
        <g id="Artboard-Copy-6" transform="translate(0.000000, -1.000000)" fill="#4C5BE6">
            <path d="M29.9972375,1 C13.4331932,1 0,14.4313515 0,31.0009208 C0,44.2554713 8.59510728,55.4989103 20.5162835,59.4658829 C22.0172504,59.7421345 22.5642285,58.8157709 22.5642285,58.0201664 C22.5642285,57.309279 22.538445,55.4215599 22.5237116,52.9187206 C14.1790724,54.730931 12.418429,48.8964977 12.418429,48.8964977 C11.0537463,45.4304613 9.08683508,44.5077811 9.08683508,44.5077811 C6.36299457,42.6476872 9.29310292,42.6845207 9.29310292,42.6845207 C12.3042451,42.8963136 13.8880874,45.7766966 13.8880874,45.7766966 C16.5640443,50.3606311 20.9104024,49.0364652 22.6194788,48.2684858 C22.892047,46.3310415 23.6673931,45.0087173 24.523773,44.2591547 C17.8624267,43.5022254 10.8585285,40.9275607 10.8585285,29.4318119 C10.8585285,26.1573099 12.0279935,23.4776697 13.9470211,21.3818411 C13.6376193,20.6230701 12.6081218,17.571411 14.2416894,13.4423709 C14.2416894,13.4423709 16.7592621,12.6357163 22.4905614,16.5179717 C24.8829,15.8512846 27.450198,15.5197827 30.0009208,15.5068909 C32.549802,15.5197827 35.1152583,15.8512846 37.5112803,16.5179717 C43.2388962,12.6357163 45.7527855,13.4423709 45.7527855,13.4423709 C47.3900365,17.571411 46.360539,20.6230701 46.0529789,21.3818411 C47.9756899,23.4776697 49.1359465,26.1573099 49.1359465,29.4318119 C49.1359465,40.9570275 42.1209982,43.493017 35.4393935,44.2352129 C36.5149329,45.1615765 37.4744467,46.9922036 37.4744467,49.7915528 C37.4744467,53.800884 37.4376132,57.0367108 37.4376132,58.0201664 C37.4376132,58.8231376 37.9790663,59.7568679 39.5002916,59.4640413 C51.4122594,55.4878603 60,44.251788 60,31.0009208 C60,14.4313515 46.5668068,1 29.9972375,1" id="Fill-4"></path>
        </g>
    </g>
</svg>